<svg width="517" height="546" viewBox="0 0 517 546" fill="none" xmlns="http://www.w3.org/2000/svg">
<g id="Frame" clip-path="url(#clip0)">
<g id="Group 1">
<path id="Vector" d="M30.0707 499.171C35.1223 516.698 49.8723 528.966 65.2585 539.388C67.4069 540.844 69.5559 542.266 71.7056 543.655C71.7201 543.661 71.7351 543.675 71.7499 543.681C71.8533 543.747 71.9569 543.814 72.0533 543.881C72.4969 544.167 72.9408 544.453 73.3808 544.736L73.1391 544.844C73.1391 544.844 72.9018 544.971 73.1614 544.865C73.2387 544.832 73.3196 544.803 73.3968 544.771C82.3352 541.166 91.4323 537.294 98.2822 530.54C105.388 523.527 109.541 512.526 105.693 503.312C105.187 502.106 104.548 500.959 103.788 499.894C103.476 499.447 103.14 499.019 102.79 498.6C100.668 496.009 97.8936 494.031 94.7531 492.868C91.6126 491.705 88.2191 491.399 84.9214 491.983C81.6238 492.566 78.5411 494.018 75.9902 496.188C73.4394 498.358 71.5125 501.168 70.4077 504.33C69.2773 493.804 77.9557 484.987 86.3074 478.481C94.6629 471.979 104.157 464.898 105.772 454.431C106.674 448.607 104.649 442.963 100.96 438.432C100.846 438.294 100.732 438.157 100.615 438.023C96.1243 432.746 89.8086 429.358 82.9292 428.534C70.1173 427.203 57.6724 433.985 48.3648 442.894C33.3843 457.227 24.328 479.244 30.0707 499.171Z" fill="#A8EDA2"/>
<path id="Vector_2" d="M54.1525 476.247C51.6936 480.073 49.8058 484.237 48.5486 488.608C47.4854 492.514 47.0123 496.558 47.1448 500.605C47.4877 508.931 49.8251 517.054 53.9602 524.289C57.0752 529.778 60.8714 534.852 65.2585 539.388C67.4068 540.844 69.5558 542.266 71.7055 543.654C71.7201 543.661 71.7351 543.674 71.7498 543.681C71.8533 543.747 71.9569 543.814 72.0532 543.881C72.4969 544.167 72.9408 544.453 73.3807 544.736C73.3807 544.736 72.9017 544.971 73.1614 544.865C73.2387 544.832 73.3196 544.803 73.3967 544.771C72.5956 538.202 73.3804 531.537 75.6854 525.334C77.9904 519.131 81.7483 513.571 86.6444 509.12C91.5523 504.736 97.4266 501.575 103.788 499.894C103.476 499.447 103.14 499.019 102.79 498.6C100.333 499.289 97.9418 500.194 95.6441 501.304C87.4309 505.249 80.7058 511.733 76.4642 519.798C72.6581 527.121 71.0199 535.377 71.7422 543.599C71.375 543.266 71.0073 542.926 70.6506 542.589C63.8584 536.256 57.8256 528.987 53.7427 520.597C50.2006 513.493 48.4597 505.626 48.6734 497.69C49.0066 489.037 52.454 481.021 57.4454 474.044C62.9161 466.6 69.3788 459.938 76.654 454.245C83.9859 448.372 92.0088 443.419 100.544 439.495C100.736 439.405 100.887 439.244 100.965 439.047C101.042 438.849 101.041 438.629 100.961 438.432C100.904 438.256 100.779 438.109 100.615 438.023C100.53 437.987 100.438 437.97 100.346 437.974C100.254 437.977 100.164 438.002 100.082 438.046C99.0285 438.531 97.982 439.023 96.9439 439.536C88.2976 443.81 80.2157 449.142 72.8838 455.408C65.8017 461.447 59.1344 468.346 54.1525 476.247Z" fill="white"/>
<path id="Vector_3" d="M202.606 231.998C217.05 224.102 222.15 205.611 213.998 190.697C205.847 175.783 187.53 170.094 173.086 177.991C158.643 185.887 153.543 204.378 161.694 219.292C169.846 234.205 188.163 239.894 202.606 231.998Z" fill="#2F2E41"/>
<path id="Vector_4" d="M187.846 237.462C201.41 237.462 212.405 226.466 212.405 212.901C212.405 199.336 201.41 188.34 187.846 188.34C174.283 188.34 163.288 199.336 163.288 212.901C163.288 226.466 174.283 237.462 187.846 237.462Z" fill="#FFB8B8"/>
<path id="Vector_5" d="M174.678 250.47L171.52 259.404L176.166 286.293L195.31 302.201L210.513 278.691L203.193 256.447L197.703 250.253C197.757 249.696 197.695 249.134 197.521 248.603C197.348 248.071 197.066 247.581 196.694 247.163C196.322 246.745 195.868 246.409 195.36 246.175C194.852 245.941 194.301 245.814 193.742 245.804L181.752 245.57C180.208 245.54 178.693 245.997 177.424 246.877C176.154 247.756 175.193 249.013 174.678 250.47V250.47Z" fill="#CCCCCC"/>
<path id="Vector_6" d="M225.554 533.697L237.812 533.695L239.505 486.407L225.55 486.409L225.554 533.697Z" fill="#FFB8B8"/>
<path id="Vector_7" d="M139.679 533.697L151.938 533.695L157.767 486.407L139.675 486.409L139.679 533.697Z" fill="#FFB8B8"/>
<path id="Vector_8" d="M174.375 363.08C168.399 363.002 162.433 362.562 156.511 361.762C155.497 361.634 154.523 361.29 153.654 360.754C152.784 360.218 152.04 359.501 151.471 358.653C150.902 357.804 150.522 356.844 150.356 355.836C150.19 354.828 150.242 353.796 150.508 352.81L163.779 303.669L153.092 273.685C151.94 270.446 152.069 266.891 153.453 263.744C154.836 260.598 157.368 258.099 160.532 256.759L175.212 250.552L179.623 277.865L190.134 291.12C190.483 291.56 190.936 291.907 191.451 292.131C191.966 292.354 192.528 292.448 193.088 292.402C193.648 292.357 194.188 292.174 194.66 291.871C195.133 291.567 195.523 291.151 195.797 290.661L203.779 276.352L197.259 250.06L206.979 251.21C210.118 251.592 213.085 252.847 215.545 254.834C218.004 256.82 219.856 259.457 220.89 262.445C223.877 271.133 224.138 280.527 221.636 289.368L217.608 303.68L224.682 349.401C224.875 350.647 224.813 351.919 224.501 353.141C224.188 354.362 223.631 355.507 222.862 356.507C222.094 357.506 221.131 358.34 220.031 358.956C218.931 359.572 217.718 359.959 216.464 360.092C211.945 360.613 207.394 360.803 202.846 360.662C198.72 360.486 195.822 357.97 194.465 353.385C194.391 353.116 194.232 352.879 194.011 352.71C193.79 352.541 193.52 352.449 193.242 352.447C192.964 352.446 192.692 352.535 192.47 352.702C192.247 352.869 192.085 353.104 192.009 353.372C191.633 354.704 191.22 356.186 190.769 357.82C189.677 361.787 182.833 363.08 174.375 363.08Z" fill="#2F2E41"/>
<path id="Vector_9" d="M217.027 274.379C215.809 274.383 214.602 274.144 213.476 273.678C212.153 273.13 210.986 272.265 210.076 271.16C209.166 270.055 208.542 268.743 208.258 267.34C207.829 265.114 208.128 262.81 209.108 260.767C210.089 258.724 211.701 257.05 213.705 255.993L242.349 240.439L240.782 234.244C240.566 233.294 240.632 232.301 240.975 231.388C241.317 230.476 241.919 229.684 242.707 229.11L250.093 223.623C250.654 223.193 251.305 222.893 251.997 222.747C252.689 222.601 253.405 222.612 254.092 222.778C254.698 222.931 255.262 223.217 255.743 223.615C256.224 224.014 256.61 224.515 256.872 225.083L260.709 233.368C263.745 239.923 261.149 247.997 254.671 252.147L222.544 272.729C220.901 273.795 218.986 274.368 217.027 274.379V274.379Z" fill="#2F2E41"/>
<path id="Vector_10" d="M156.68 511.714C156.58 511.714 156.48 511.711 156.379 511.705L140.772 511.078C140.167 511.04 139.575 510.88 139.033 510.608C138.491 510.336 138.01 509.957 137.618 509.494C137.226 509.031 136.932 508.493 136.753 507.914C136.574 507.334 136.514 506.724 136.577 506.121L152.417 353.71L193.989 338.591L218.47 352.446L245.253 500.126C245.463 501.256 245.233 502.424 244.61 503.39C243.987 504.356 243.018 505.047 241.901 505.321L241.837 505.337L225.86 504.944C224.759 505.193 223.604 505.021 222.624 504.46C221.644 503.9 220.909 502.992 220.565 501.917L186.54 382.503C186.438 382.192 186.236 381.922 185.966 381.736C185.696 381.549 185.373 381.457 185.045 381.472C184.717 381.487 184.404 381.609 184.152 381.82C183.901 382.03 183.725 382.317 183.652 382.637L161.064 508.19C160.845 509.19 160.29 510.084 159.493 510.725C158.695 511.366 157.703 511.715 156.68 511.714V511.714Z" fill="#2F2E41"/>
<path id="Vector_11" d="M166.397 197.396C162.49 202.511 165.463 211.217 171.683 212.874C177.902 214.531 184.812 208.456 183.966 202.075C182.624 208.77 188.353 215.776 195.155 216.371C201.956 216.967 208.569 211.637 210.057 204.973C211.545 198.31 208.224 191.029 202.571 187.201C196.917 183.372 189.347 182.875 182.95 185.262C176.42 187.704 170.692 191.903 166.397 197.396V197.396Z" fill="#2F2E41"/>
<path id="Vector_12" d="M196.002 175.562C192.364 167.927 188.626 160.146 182.747 154.067C176.867 147.988 168.362 143.801 160.027 145.234C151.693 146.668 144.516 155.08 146.362 163.334C147.299 167.526 143.71 171.68 139.573 172.835C135.435 173.99 131.026 172.91 126.935 171.598C122.845 170.285 118.702 168.718 114.41 168.903C105.805 169.273 98.6101 177.42 98.3078 186.028C98.0055 194.637 103.861 202.832 111.717 206.363C119.573 209.895 128.97 209.104 136.719 205.343C144.468 201.582 150.664 195.098 155.195 187.772C161.89 176.946 178.714 174.276 188.431 182.497C189.472 183.314 190.782 183.709 192.101 183.603C193.419 183.498 194.65 182.899 195.547 181.926C197.266 179.921 197.016 176.538 196.002 175.562Z" fill="#2F2E41"/>
<path id="Vector_13" d="M244.638 183.485C243.871 183.218 243.206 182.717 242.738 182.052C242.27 181.388 242.021 180.593 242.027 179.78V9C242.03 6.61389 242.979 4.32629 244.666 2.63905C246.353 0.951817 248.64 0.00272874 251.026 0H508.001C510.387 0.00272874 512.674 0.951817 514.361 2.63905C516.048 4.32629 516.997 6.61389 517 9V153C516.997 155.386 516.048 157.674 514.361 159.361C512.674 161.048 510.387 161.997 508.001 162H265.59L249.005 182.272C248.641 182.724 248.181 183.088 247.658 183.339C247.135 183.589 246.562 183.72 245.982 183.721C245.524 183.72 245.069 183.64 244.638 183.485V183.485ZM251.026 2C249.171 2.00208 247.392 2.74025 246.079 4.05255C244.767 5.36485 244.029 7.14412 244.027 9V179.78C244.027 180.179 244.15 180.568 244.38 180.895C244.61 181.221 244.935 181.468 245.311 181.602C245.686 181.736 246.094 181.751 246.479 181.644C246.863 181.537 247.205 181.314 247.458 181.005L264.642 160H508.001C509.857 159.998 511.636 159.26 512.948 157.947C514.26 156.635 514.998 154.856 515 153V9C514.998 7.14412 514.26 5.36485 512.948 4.05255C511.636 2.74025 509.857 2.00208 508.001 2H251.026Z" fill="#3F3D56"/>
<path id="Vector_14" d="M168.861 339.354L167.125 335.317C161.036 320.813 156.967 311.346 160.556 303.529C161.859 300.557 164.288 298.223 167.311 297.043C170.334 295.862 173.701 295.93 176.673 297.233C176.782 297.28 176.889 297.33 176.996 297.38C178.747 298.196 180.3 299.382 181.546 300.858C182.792 302.334 183.702 304.063 184.213 305.926C185.958 305.1 187.863 304.663 189.794 304.647C191.726 304.631 193.637 305.035 195.397 305.832C196.864 306.486 198.189 307.422 199.295 308.588C200.4 309.754 201.266 311.126 201.841 312.626C202.417 314.127 202.691 315.726 202.649 317.332C202.607 318.938 202.248 320.521 201.594 321.989C201.546 322.097 201.497 322.204 201.445 322.311C197.856 330.127 188.023 333.209 173.055 338.04L168.861 339.354Z" fill="#F40D0D"/>
<path id="Vector_15" d="M175.554 319.524C175.086 318.13 174.318 316.856 173.305 315.791C172.292 314.726 171.057 313.896 169.688 313.36C168.32 312.824 166.85 312.595 165.383 312.688C163.916 312.781 162.487 313.195 161.198 313.9L143.225 300.398L138.887 312.75L157.461 328.229C158.789 330.317 160.837 331.846 163.217 332.525C165.597 333.204 168.143 332.986 170.373 331.913C172.603 330.84 174.362 328.987 175.317 326.703C176.272 324.42 176.356 321.865 175.553 319.524H175.554Z" fill="#FFB8B8"/>
<path id="Vector_16" d="M149.784 323.783C148.993 323.783 148.217 323.557 147.548 323.134L139.83 318.255C133.724 314.396 131.524 306.206 134.715 299.204L150.537 264.482C151.172 263.027 152.15 261.747 153.387 260.751C154.623 259.756 156.083 259.075 157.64 258.766C159.049 258.508 160.498 258.601 161.862 259.035C163.226 259.47 164.462 260.233 165.462 261.258C167.029 262.895 168.029 264.993 168.313 267.241C168.598 269.49 168.152 271.77 167.041 273.746L151.417 302.354L156.094 306.707C156.792 307.388 157.274 308.258 157.482 309.21C157.689 310.162 157.613 311.155 157.262 312.064L154.034 320.681C153.796 321.347 153.412 321.951 152.91 322.45C152.408 322.948 151.801 323.328 151.133 323.561C150.698 323.708 150.243 323.782 149.784 323.783V323.783Z" fill="#2F2E41"/>
<path id="Vector_17" d="M261.455 545.077L222.928 545.081L222.927 530.194L246.568 530.192C250.516 530.192 254.302 531.76 257.094 534.551C259.886 537.343 261.455 541.129 261.455 545.077V545.077L261.455 545.077Z" fill="#2F2E41"/>
<path id="Vector_18" d="M175.58 545.077L137.053 545.081L137.052 530.194L160.694 530.192C164.642 530.192 168.428 531.76 171.22 534.551C174.011 537.343 175.58 541.129 175.58 545.077L175.58 545.077Z" fill="#2F2E41"/>
<path id="Vector_19" d="M314.969 546H0.999886C0.734695 546 0.480381 545.895 0.292863 545.707C0.105346 545.52 -1.52588e-05 545.265 -1.52588e-05 545C-1.52588e-05 544.735 0.105346 544.48 0.292863 544.293C0.480381 544.105 0.734695 544 0.999886 544H314.969C315.234 544 315.488 544.105 315.676 544.293C315.863 544.48 315.969 544.735 315.969 545C315.969 545.265 315.863 545.52 315.676 545.707C315.488 545.895 315.234 546 314.969 546Z" fill="#CCCCCC"/>
</g>
<g id="heart">
<path id="Vector_20" d="M379.514 132.654L371.321 125.262C342.227 98.5479 323.019 81.2089 323.019 59.6099C323.019 41.9878 336.577 28.3461 354.091 28.3461C358.941 28.3719 363.727 29.4531 368.117 31.5145C372.507 33.576 376.396 36.5683 379.514 40.2837C382.631 36.5682 386.52 33.5758 390.91 31.5144C395.3 29.453 400.086 28.3719 404.936 28.3461C422.45 28.3461 436.008 41.9879 436.008 59.6099C436.008 81.2092 416.8 98.5482 387.706 125.262L379.514 132.654Z" fill="#F40D0D"/>
</g>
<g id="wave">
<path id="Vector_21" d="M247.464 201.607C248.722 202.368 249.798 203.395 250.616 204.617C251.433 205.838 251.973 207.224 252.198 208.677C252.422 210.13 252.325 211.614 251.913 213.026C251.502 214.437 250.786 215.741 249.816 216.846L259.955 237.467L248.928 246.685L235.019 217.363C233.271 215.611 232.227 213.278 232.084 210.807C231.941 208.336 232.71 205.899 234.244 203.956C235.778 202.014 237.971 200.702 240.408 200.269C242.844 199.836 245.355 200.312 247.464 201.607H247.464Z" fill="#FFB8B8"/>
</g>
</g>
<defs>
<clipPath id="clip0">
<rect width="517" height="546" fill="white"/>
</clipPath>
</defs>
</svg>
